<svg width="24" height="24" viewBox="0 0 24 24" fill="none" xmlns="http://www.w3.org/2000/svg">
<path fill-rule="evenodd" clip-rule="evenodd" d="M6.57029 12.6677L14.3773 5.11685C16.2046 3.28957 18.7864 3.05727 20.4525 4.72336C21.9667 6.23758 21.6743 8.2633 20.0798 10.2048C20.0095 10.2904 19.9362 10.3739 19.8628 10.4524L12.6181 17.9544L12.6208 17.9571C9.9821 20.6685 6.02843 21.2369 3.87518 19.0837C1.65657 16.8651 1.92888 13.6391 4.77063 10.5802L4.97799 10.362L11.8512 3.83804L12.911 4.9545L6.05989 11.4565C3.58858 14.0004 3.34602 16.3776 4.96364 17.9952C6.38962 19.4212 9.24309 19.0604 11.3248 17.0744L11.3951 17.0049L18.6551 9.4871C18.7382 9.40398 18.8167 9.31747 18.8902 9.22788C20.0406 7.82721 20.2094 6.65724 19.364 5.81182C18.3876 4.83539 16.8593 4.93032 15.6111 6.06682L15.4566 6.2143L7.64559 13.7691C7.14866 14.2704 7.14999 15.0796 7.6496 15.5792C8.11716 16.0468 8.85584 16.0779 9.34838 15.6842L9.44996 15.5933L15.9902 8.70976L17.1062 9.77003L10.5522 16.6677C9.45007 17.7698 7.66323 17.7698 6.56115 16.6677C5.50498 15.6115 5.46097 13.9265 6.42912 12.8179L6.56115 12.6767L7.10536 13.2209L6.57029 12.6677Z" fill="#717680"/>
</svg>
