<?xml version="1.0" encoding="UTF-8" standalone="no"?>
<svg
   width="24"
   height="24"
   viewBox="0 0 24 24"
   fill="none"
   version="1.1"
   id="svg1"
   sodipodi:docname="heart.svg"
   inkscape:version="1.4.2 (f4327f4, 2025-05-13)"
   xmlns:inkscape="http://www.inkscape.org/namespaces/inkscape"
   xmlns:sodipodi="http://sodipodi.sourceforge.net/DTD/sodipodi-0.dtd"
   xmlns="http://www.w3.org/2000/svg"
   xmlns:svg="http://www.w3.org/2000/svg">
  <defs
     id="defs1" />
  <sodipodi:namedview
     id="namedview1"
     pagecolor="#ffffff"
     bordercolor="#000000"
     borderopacity="0.25"
     inkscape:showpageshadow="2"
     inkscape:pageopacity="0.0"
     inkscape:pagecheckerboard="0"
     inkscape:deskcolor="#d1d1d1"
     inkscape:zoom="48.625"
     inkscape:cx="12"
     inkscape:cy="12"
     inkscape:window-width="3440"
     inkscape:window-height="1369"
     inkscape:window-x="-8"
     inkscape:window-y="-8"
     inkscape:window-maximized="1"
     inkscape:current-layer="svg1" />
  <path
     style="baseline-shift:baseline;display:inline;overflow:visible;vector-effect:none;fill:#414651;stroke-linecap:round;stroke-linejoin:round;enable-background:accumulate;stop-color:#000000;stop-opacity:1;opacity:1"
     d="M 7.8886719,2 C 5.8102904,2 4.0465836,3.0075181 2.8574219,4.4238281 1.6682602,5.8401382 1,7.6644757 1,9.4804688 c 0,3.6838202 2.7137971,6.7279972 5.2890625,8.8984372 1.2876327,1.08522 2.5679705,1.956868 3.546875,2.5625 0.4894525,0.302816 0.9037995,0.538367 1.2089845,0.703125 0.152592,0.08238 0.277292,0.14615 0.378906,0.195313 0.05081,0.02458 0.09371,0.04504 0.144531,0.06641 0.02541,0.01068 0.05191,0.02224 0.0957,0.03711 0.0219,0.0074 0.04634,0.01661 0.08984,0.02734 0.02175,0.0054 0.04886,0.0097 0.08594,0.01563 C 11.876921,21.99226 11.999305,22 12,22 c 6.95e-4,0 0.123079,-0.0077 0.160156,-0.01367 0.03708,-0.0059 0.06419,-0.01026 0.08594,-0.01563 0.0435,-0.01074 0.06794,-0.01991 0.08984,-0.02734 0.0438,-0.01487 0.07029,-0.02643 0.0957,-0.03711 0.05082,-0.02137 0.09372,-0.04182 0.144531,-0.06641 0.101614,-0.04916 0.226314,-0.112934 0.378906,-0.195313 0.305185,-0.164758 0.719532,-0.400309 1.208985,-0.703125 0.978904,-0.605632 2.259242,-1.47728 3.546874,-2.5625 C 20.286203,16.208466 23,13.164289 23,9.4804688 23,7.6644725 22.331744,5.8401368 21.142578,4.4238281 19.953412,3.0075194 18.189701,2 16.111328,2 14.228248,2 12.947055,2.8081669 12,3.65625 11.052947,2.8081677 9.7717654,2 7.8886719,2 Z m 0,2 c 1.6847196,0 2.7081871,0.8193246 3.3496091,1.5722656 a 1.0001,1.0001 0 0 0 1.523438,0 C 13.403138,4.8193279 14.426632,4 16.111328,4 c 1.443827,0 2.625266,0.6691212 3.5,1.7109375 C 20.486062,6.7527538 21,8.168965 21,9.4804688 21,12.130449 18.80216,14.8435 16.421875,16.849609 c -1.190142,1.003055 -2.397783,1.825913 -3.310547,2.390625 -0.456382,0.282356 -0.83947,0.500928 -1.105469,0.644532 -0.0028,0.0015 -0.0031,0.0024 -0.0059,0.0039 -0.0027,-0.0015 -0.0031,-0.0024 -0.0059,-0.0039 C 11.728142,19.741162 11.345054,19.52259 10.888672,19.240234 9.9759076,18.675522 8.7682673,17.852664 7.578125,16.849609 5.1978404,14.8435 3,12.130449 3,9.4804688 3,8.1689618 3.5139436,6.7527525 4.3886719,5.7109375 5.2634002,4.6691225 6.4448334,4 7.8886719,4 Z"
     id="path1" />
</svg>
