<svg width="20" height="20" viewBox="0 0 20 20" fill="none" xmlns="http://www.w3.org/2000/svg">
<path fill-rule="evenodd" clip-rule="evenodd" d="M10.1596 18.5956C8.45742 18.5956 7.66641 18.3461 6.29145 17.3478C5.42175 18.4709 2.6677 19.3485 2.5476 17.8469C2.5476 16.7197 2.29911 15.7672 2.01749 14.7274C1.68204 13.4463 1.30103 12.0196 1.30103 9.95235C1.30103 5.01512 5.33478 1.30075 10.114 1.30075C14.8974 1.30075 18.6454 5.19813 18.6454 9.99811C18.6614 14.7239 14.8648 18.5704 10.1596 18.5956ZM10.23 5.56832C7.90247 5.4477 6.08852 7.06571 5.6868 9.60296C5.35549 11.7035 5.94357 14.2615 6.44469 14.3946C6.68489 14.4528 7.28954 13.962 7.66641 13.5835C8.28958 14.0159 9.01526 14.2756 9.77026 14.3364C12.1819 14.4529 14.2426 12.6089 14.4045 10.1894C14.4988 7.76485 12.642 5.71123 10.23 5.57248L10.23 5.56832Z" fill="white"/>
</svg>
