<?xml version="1.0" encoding="UTF-8" standalone="no"?>
<svg
   width="32"
   height="32"
   viewBox="0 0 32 32"
   fill="none"
   version="1.1"
   id="svg1"
   sodipodi:docname="phone-incoming.svg"
   inkscape:version="1.4.2 (f4327f4, 2025-05-13)"
   xmlns:inkscape="http://www.inkscape.org/namespaces/inkscape"
   xmlns:sodipodi="http://sodipodi.sourceforge.net/DTD/sodipodi-0.dtd"
   xmlns="http://www.w3.org/2000/svg"
   xmlns:svg="http://www.w3.org/2000/svg">
  <defs
     id="defs1" />
  <sodipodi:namedview
     id="namedview1"
     pagecolor="#ffffff"
     bordercolor="#000000"
     borderopacity="0.25"
     inkscape:showpageshadow="2"
     inkscape:pageopacity="0.0"
     inkscape:pagecheckerboard="0"
     inkscape:deskcolor="#d1d1d1"
     inkscape:zoom="36.46875"
     inkscape:cx="16"
     inkscape:cy="16"
     inkscape:window-width="3440"
     inkscape:window-height="1369"
     inkscape:window-x="-8"
     inkscape:window-y="-8"
     inkscape:window-maximized="1"
     inkscape:current-layer="svg1" />
  <path
     style="baseline-shift:baseline;display:inline;overflow:visible;vector-effect:none;fill:#181d27;stroke-linecap:round;stroke-linejoin:round;enable-background:accumulate;stop-color:#000000;stop-opacity:1;opacity:1"
     d="M 21.292969,3.2929688 16.625,7.9589844 A 1,1 0 0 0 16.332031,8.6660156 1,1 0 0 0 16.625,9.3730469 l 4.667969,4.6679691 a 1,1 0 0 0 1.414062,0 1,1 0 0 0 0,-1.414063 L 19.746094,9.6660156 H 28 a 1,1 0 0 0 1,-1 1,1 0 0 0 -1,-1 h -8.253906 l 2.960937,-2.9589844 a 1,1 0 0 0 0,-1.4140624 1,1 0 0 0 -1.414062,0 z M 7.2714844,3.7402344 c -0.5675415,0 -1.1344445,0.1315927 -1.6542969,0.3945312 C 5.0186992,4.437478 4.6265588,4.8656288 3.9179688,5.5742187 L 3.7070313,5.7851562 C 3.0008612,6.4913262 2.5625536,6.918557 2.2128906,7.5410156 1.7973691,8.2807142 1.5697384,9.1574219 1.5722656,10.005859 c 0.00201,0.678575 0.1477161,1.196712 0.3613281,1.949219 1.1930564,4.203488 3.4457905,8.172426 6.7519532,11.478516 3.3061441,3.306186 7.2751141,5.560907 11.4785151,6.753906 0.7526,0.2136 1.270714,0.35728 1.949219,0.359375 a 1.0001,1.0001 0 0 0 0.002,0 c 0.848354,0.0025 1.723102,-0.224971 2.462891,-0.640625 0.622478,-0.349625 1.049659,-0.787941 1.755859,-1.494141 l 0.210938,-0.210937 c 0.708567,-0.708567 1.138643,-1.09866 1.441406,-1.697266 a 1.0001,1.0001 0 0 0 0,-0.002 c 0.525812,-1.03967 0.525812,-2.268924 0,-3.308594 -0.302742,-0.598406 -0.732806,-0.990618 -1.441406,-1.699218 l -0.259766,-0.259766 c -0.4661,-0.4661 -0.724634,-0.741164 -1.095703,-0.982422 -1.213117,-0.788705 -2.784929,-0.788705 -3.998047,0 -0.371069,0.241258 -0.629603,0.516322 -1.095703,0.982422 -0.152323,0.152423 -0.18932,0.184053 -0.191406,0.185547 -0.03328,0.02382 -0.248073,0.06021 -0.28711,0.04883 a 1.0001,1.0001 0 0 0 -0.002,0 c -0.01696,-0.0049 -0.03495,-0.01193 -0.201172,-0.0918 -1.832927,-0.880048 -3.550567,-2.077911 -5.072265,-3.599609 -1.521713,-1.521713 -2.719608,-3.239282 -3.599609,-5.072266 -0.07982,-0.1662 -0.08676,-0.183911 -0.0918,-0.201172 -0.01141,-0.03913 0.02504,-0.253892 0.04883,-0.287109 0.0015,-0.0021 0.03316,-0.04097 0.185547,-0.193359 0.4662,-0.466201 0.743155,-0.724693 0.984375,-1.095704 0.788804,-1.2131412 0.788804,-2.784905 0,-3.9980465 C 11.627979,6.5588141 11.351016,6.3001749 10.884766,5.8339844 L 10.625,5.5742187 C 9.91641,4.8656287 9.5242696,4.437478 8.9257813,4.1347656 8.4059288,3.8718271 7.8390259,3.7402344 7.2714844,3.7402344 Z M 6.5195312,5.9179687 c 0.4737952,-0.2396429 1.0301112,-0.2396429 1.5039063,0 0.1625317,0.082208 0.47891,0.3617225 1.1875,1.0703125 l 0.2597656,0.2597657 c 0.4661495,0.4660894 0.6570649,0.6736177 0.7207029,0.7714844 0.360596,0.5545784 0.360596,1.2637809 0,1.8183593 -0.06358,0.09779 -0.2545029,0.3052844 -0.7207029,0.7714844 -0.1524154,0.152415 -0.2723453,0.265284 -0.3984375,0.441406 -0.4295771,0.599983 -0.54831,1.303252 -0.3417968,2.011719 0.056308,0.193139 0.1291643,0.341613 0.2089843,0.507813 0.9759388,2.032815 2.3057949,3.938606 3.9882809,5.621093 1.682502,1.682502 3.588422,3.014283 5.621094,3.990235 v -0.002 c 0.166376,0.07994 0.314372,0.154671 0.507813,0.210938 v -0.002 c 0.708563,0.206617 1.411799,0.08758 2.011718,-0.341797 0.175685,-0.125799 0.289486,-0.24639 0.441407,-0.398438 0.4661,-0.466099 0.675706,-0.657161 0.773437,-0.720703 0.554483,-0.360495 1.261924,-0.360495 1.816406,0 0.09773,0.06354 0.305385,0.254604 0.771485,0.720703 l 0.259765,0.259766 c 0.7086,0.7086 0.988055,1.024907 1.070313,1.1875 0.239588,0.47373 0.239588,1.030176 0,1.503906 -0.08224,0.162594 -0.361679,0.478867 -1.070313,1.1875 l -0.210937,0.210938 c -0.7062,0.7062 -0.984744,0.974488 -1.322266,1.164062 -0.32561,0.182946 -1.102916,0.385867 -1.476562,0.384766 -0.422695,-0.0013 -0.657557,-0.07156 -1.410157,-0.285156 C 16.825339,27.158918 13.161385,25.081345 10.099609,22.019531 7.037832,18.957821 4.9602855,15.293915 3.8574219,11.408203 3.6438139,10.65571 3.5735168,10.422625 3.5722656,10 3.5711529,9.6264375 3.7740928,8.8471458 3.9570313,8.5214844 4.1466883,8.183863 4.4149237,7.9053887 5.1210937,7.1992187 L 5.3320312,6.9882812 c 0.70859,-0.70859 1.0249684,-0.9881048 1.1875,-1.0703125 z"
     id="path1" />
</svg>
