<?xml version="1.0" encoding="UTF-8" standalone="no"?>
<svg
   width="18"
   height="18"
   viewBox="0 0 18 18"
   fill="none"
   version="1.1"
   id="svg1"
   sodipodi:docname="plus.svg"
   inkscape:version="1.4.2 (f4327f4, 2025-05-13)"
   xmlns:inkscape="http://www.inkscape.org/namespaces/inkscape"
   xmlns:sodipodi="http://sodipodi.sourceforge.net/DTD/sodipodi-0.dtd"
   xmlns="http://www.w3.org/2000/svg"
   xmlns:svg="http://www.w3.org/2000/svg">
  <defs
     id="defs1" />
  <sodipodi:namedview
     id="namedview1"
     pagecolor="#ffffff"
     bordercolor="#000000"
     borderopacity="0.25"
     inkscape:showpageshadow="2"
     inkscape:pageopacity="0.0"
     inkscape:pagecheckerboard="0"
     inkscape:deskcolor="#d1d1d1"
     inkscape:zoom="64.833333"
     inkscape:cx="9"
     inkscape:cy="9"
     inkscape:window-width="3440"
     inkscape:window-height="1369"
     inkscape:window-x="-8"
     inkscape:window-y="-8"
     inkscape:window-maximized="1"
     inkscape:current-layer="svg1" />
  <path
     style="baseline-shift:baseline;display:inline;overflow:visible;vector-effect:none;fill:#939393;stroke-linecap:round;stroke-linejoin:round;enable-background:accumulate;stop-color:#000000;stop-opacity:1;opacity:1"
     d="M 9,2.9160156 A 0.83333498,0.83333498 0 0 0 8.1660156,3.75 V 8.1660156 H 3.75 A 0.83333498,0.83333498 0 0 0 2.9160156,9 0.83333498,0.83333498 0 0 0 3.75,9.8339844 H 8.1660156 V 14.25 A 0.83333498,0.83333498 0 0 0 9,15.083984 0.83333498,0.83333498 0 0 0 9.8339844,14.25 V 9.8339844 H 14.25 A 0.83333498,0.83333498 0 0 0 15.083984,9 0.83333498,0.83333498 0 0 0 14.25,8.1660156 H 9.8339844 V 3.75 A 0.83333498,0.83333498 0 0 0 9,2.9160156 Z"
     id="path1" />
</svg>
