<svg width="20" height="16" viewBox="0 0 20 16" fill="none" xmlns="http://www.w3.org/2000/svg">
<path d="M13.884 7.26945H4.13465V3.52841H13.884C14.4535 3.52841 14.8495 3.62468 15.0482 3.79275C15.2469 3.96085 15.37 4.27261 15.37 4.72802V6.0713C15.37 6.55113 15.2469 6.86288 15.0482 7.03098C14.8495 7.19905 14.4535 7.27091 13.884 7.27091V7.26945ZM14.5529 0.00143063H0V16H4.13465V10.795H11.7544L15.37 16H20L16.0137 10.7706C17.4833 10.5594 18.1432 10.1227 18.6875 9.40289C19.2318 8.68313 19.5047 7.53236 19.5047 5.99658V4.79699C19.5047 3.88613 19.4053 3.16638 19.2318 2.61472C19.0583 2.06303 18.7617 1.5832 18.3405 1.15219C17.8956 0.744194 17.4003 0.456849 16.8056 0.26434C16.2109 0.0962668 15.4679 0 14.5529 0V0.00143063Z" fill="white"/>
</svg>
