<?xml version="1.0" encoding="UTF-8" standalone="no"?>
<svg
   width="18"
   height="18"
   viewBox="0 0 18 18"
   fill="none"
   version="1.1"
   id="svg1"
   sodipodi:docname="shopping-cart.svg"
   inkscape:version="1.4.2 (f4327f4, 2025-05-13)"
   xmlns:inkscape="http://www.inkscape.org/namespaces/inkscape"
   xmlns:sodipodi="http://sodipodi.sourceforge.net/DTD/sodipodi-0.dtd"
   xmlns="http://www.w3.org/2000/svg"
   xmlns:svg="http://www.w3.org/2000/svg">
  <sodipodi:namedview
     id="namedview1"
     pagecolor="#ffffff"
     bordercolor="#000000"
     borderopacity="0.25"
     inkscape:showpageshadow="2"
     inkscape:pageopacity="0.0"
     inkscape:pagecheckerboard="0"
     inkscape:deskcolor="#d1d1d1"
     inkscape:zoom="64.833333"
     inkscape:cx="9"
     inkscape:cy="9"
     inkscape:window-width="3440"
     inkscape:window-height="1369"
     inkscape:window-x="-8"
     inkscape:window-y="-8"
     inkscape:window-maximized="1"
     inkscape:current-layer="svg1" />
  <path
     style="baseline-shift:baseline;display:inline;overflow:visible;vector-effect:none;fill:#181d27;stroke-linecap:round;stroke-linejoin:round;enable-background:accumulate;stop-color:#000000;stop-opacity:1;opacity:1"
     d="m 1.5,0.5 a 1,1 0 0 0 -1,1 1,1 0 0 0 1,1 H 2.1328125 L 2.4375,4.6328125 a 1.0001,1.0001 0 0 0 0,0.00195 l 0.7890625,5.7988284 c 0.1001106,0.735804 0.1279613,1.238469 0.4726563,1.78125 0.2583325,0.406639 0.6287211,0.730549 1.0664062,0.93164 C 5.3500064,13.415026 5.8530831,13.375 6.5957031,13.375 h 6.4179689 c 0.7069,0 1.187673,0.03564 1.751953,-0.212891 0.424551,-0.186855 0.789721,-0.487121 1.052734,-0.86914 0.349592,-0.507787 0.402865,-0.987286 0.535157,-1.681641 l 0.992187,-5.2109374 v -0.00195 c 0.04671,-0.2434813 0.167665,-0.4987143 -0.002,-0.9804688 v -0.00195 C 17.235126,4.1096311 17.020904,3.8512547 16.740234,3.6875 a 1.0001,1.0001 0 0 0 -0.002,0 C 16.294914,3.4293244 16.024191,3.5 15.775391,3.5 H 4.2949219 L 4.0644531,1.8730469 C 4.0383606,1.6903692 4.0452652,1.4650686 3.8320313,1.1328125 3.6895956,0.91085487 3.4859098,0.73460714 3.2460938,0.625 2.887055,0.46093015 2.6649888,0.5 2.4804688,0.5 Z m 3.0742187,5 H 15.292969 l -0.904297,4.736328 c -0.132309,0.694446 -0.210342,0.909662 -0.21875,0.921875 -0.05259,0.07638 -0.124136,0.136484 -0.208984,0.173828 -0.01332,0.0059 -0.240366,0.04297 -0.947266,0.04297 H 6.5957031 c -0.74262,0 -0.982262,-0.03946 -0.9941406,-0.04492 -0.087282,-0.0401 -0.1612416,-0.106731 -0.2128906,-0.1875 -0.00713,-0.01122 -0.079578,-0.24272 -0.1796875,-0.978515 z M 6.75,14 C 5.7953234,14 5,14.795336 5,15.75 5,16.704664 5.7953234,17.5 6.75,17.5 7.7046766,17.5 8.5,16.704664 8.5,15.75 8.5,14.795336 7.7046766,14 6.75,14 Z m 6,0 C 11.79532,14 11,14.79532 11,15.75 c 0,0.95468 0.79532,1.75 1.75,1.75 0.95468,0 1.75,-0.79532 1.75,-1.75 C 14.5,14.79532 13.70468,14 12.75,14 Z m -6,1.5 C 6.8762566,15.5 7,15.623736 7,15.75 7,15.876264 6.8762566,16 6.75,16 6.6237434,16 6.5,15.876264 6.5,15.75 6.5,15.623736 6.6237434,15.5 6.75,15.5 Z m 6,0 c 0.12628,0 0.25,0.12372 0.25,0.25 0,0.12628 -0.12372,0.25 -0.25,0.25 -0.12628,0 -0.25,-0.12372 -0.25,-0.25 0,-0.12628 0.12372,-0.25 0.25,-0.25 z"
     id="path1" />
  <defs
     id="defs1" />
</svg>
