<?xml version="1.0" encoding="UTF-8" standalone="no"?>
<svg
   width="15"
   height="15"
   viewBox="0 0 15 15"
   fill="none"
   version="1.1"
   id="svg2"
   sodipodi:docname="stars.svg"
   inkscape:version="1.4.2 (f4327f4, 2025-05-13)"
   xmlns:inkscape="http://www.inkscape.org/namespaces/inkscape"
   xmlns:sodipodi="http://sodipodi.sourceforge.net/DTD/sodipodi-0.dtd"
   xmlns="http://www.w3.org/2000/svg"
   xmlns:svg="http://www.w3.org/2000/svg">
  <defs
     id="defs2" />
  <sodipodi:namedview
     id="namedview2"
     pagecolor="#ffffff"
     bordercolor="#000000"
     borderopacity="0.25"
     inkscape:showpageshadow="2"
     inkscape:pageopacity="0.0"
     inkscape:pagecheckerboard="0"
     inkscape:deskcolor="#d1d1d1"
     inkscape:zoom="77.8"
     inkscape:cx="7.5"
     inkscape:cy="7.5"
     inkscape:window-width="3440"
     inkscape:window-height="1369"
     inkscape:window-x="-8"
     inkscape:window-y="-8"
     inkscape:window-maximized="1"
     inkscape:current-layer="svg2" />
  <path
     style="baseline-shift:baseline;display:inline;overflow:visible;vector-effect:none;fill:#f79009;stroke-linecap:round;stroke-linejoin:round;enable-background:accumulate;stop-color:#000000;stop-opacity:1;opacity:1"
     d="M 3.5,7.3339844 A 0.50005,0.50005 0 0 0 3.0527344,7.609375 L 2.5292969,8.65625 C 2.3522918,9.0102401 2.2755812,9.1562202 2.1972656,9.2578125 2.1186,9.3598754 2.0278586,9.4525657 1.9257812,9.53125 1.8241658,9.6095916 1.6762539,9.6862821 1.3222656,9.8632813 L 0.27734375,10.386719 a 0.50005,0.50005 0 0 0 0,0.894531 l 1.04492185,0.521484 c 0.3539883,0.177 0.5018623,0.255647 0.6035156,0.333985 0.1020751,0.07868 0.192826,0.169431 0.2714844,0.271484 0.078345,0.10165 0.1550279,0.249509 0.3320313,0.603516 l 0.5234375,1.044922 a 0.50005,0.50005 0 0 0 0.8945312,0 l 0.5234375,-1.044922 c 0.1770034,-0.354007 0.2536866,-0.501866 0.3320313,-0.603516 0.078658,-0.102053 0.1694093,-0.192809 0.2714843,-0.271484 0.1016534,-0.07834 0.2495274,-0.156985 0.6035157,-0.333985 L 6.7226562,11.28125 a 0.50005,0.50005 0 0 0 0,-0.894531 L 5.6777344,9.8632813 C 5.3237461,9.6862821 5.1758342,9.6095916 5.0742187,9.53125 4.9721414,9.4525657 4.8814,9.3598754 4.8027344,9.2578125 4.7244188,9.1562202 4.6477082,9.0102401 4.4707031,8.65625 L 3.9472656,7.609375 A 0.50005,0.50005 0 0 0 3.5,7.3339844 Z m 0,1.6171875 0.076172,0.1523437 C 3.7531668,9.4574855 3.8516212,9.6639929 4.0097656,9.8691406 4.1409,10.039278 4.2947211,10.19113 4.4648437,10.322266 c 0.2051446,0.158158 0.4116334,0.258546 0.765625,0.435547 l 0.1503907,0.07617 -0.1503907,0.07422 C 4.8764771,11.085204 4.6699504,11.185688 4.4648437,11.34375 4.2947188,11.474875 4.1409072,11.626728 4.0097656,11.796875 3.8516503,12.002025 3.7531685,12.21046 3.5761719,12.564453 L 3.5,12.716797 3.4238281,12.564453 C 3.2468315,12.21046 3.1483497,12.002025 2.9902344,11.796875 2.8590928,11.626728 2.7052812,11.474875 2.5351563,11.34375 2.3300496,11.185688 2.1235229,11.085204 1.7695312,10.908203 l -0.1503906,-0.07422 0.1503906,-0.07617 C 2.1235229,10.580812 2.3300117,10.480424 2.5351563,10.322266 2.7052789,10.19113 2.8591,10.039278 2.9902344,9.8691406 3.1483788,9.6639929 3.2468332,9.4574855 3.4238281,9.1035156 Z"
     id="path1" />
  <path
     style="baseline-shift:baseline;display:inline;overflow:visible;vector-effect:none;fill:#f79009;stroke-linecap:round;stroke-linejoin:round;enable-background:accumulate;stop-color:#000000;stop-opacity:1;opacity:1"
     d="M 9.1660156,0 A 0.50005,0.50005 0 0 0 8.6992188,0.3203125 L 7.9140625,2.3632813 C 7.7260514,2.852104 7.6413092,3.0558614 7.5449219,3.1914063 7.4477501,3.3280662 7.3280662,3.4477501 7.1914062,3.5449219 7.0558614,3.6413092 6.852104,3.7260514 6.3632812,3.9140625 L 4.3203125,4.6992187 a 0.50005,0.50005 0 0 0 0,0.9335938 l 2.0429687,0.7871094 c 0.4888173,0.1880089 0.6925658,0.2727496 0.828125,0.3691406 0.13666,0.097172 0.2563439,0.2149026 0.3535157,0.3515625 0.096395,0.1355623 0.1811295,0.3412554 0.3691406,0.8300781 l 0.7851563,2.0429689 a 0.50005,0.50005 0 0 0 0.9335937,0 L 10.419922,7.9707031 c 0.187978,-0.4888144 0.27079,-0.6945214 0.367187,-0.8300781 0.09723,-0.1366988 0.216853,-0.2543831 0.353516,-0.3515625 0.1356,-0.096411 0.341281,-0.1811317 0.830078,-0.3691406 l 2.042969,-0.7871094 a 0.50005,0.50005 0 0 0 0,-0.9335938 L 11.970703,3.9140625 C 11.4819,3.7260514 11.276211,3.641329 11.140625,3.5449219 11.003962,3.4477425 10.884339,3.3281051 10.787109,3.1914063 10.690719,3.055867 10.6079,2.8520957 10.419922,2.3632813 L 9.6328125,0.3203125 A 0.50005,0.50005 0 0 0 9.1660156,0 Z m 0,1.8925781 0.3203125,0.8300782 c 0.1879822,0.4888255 0.2903181,0.7732073 0.4863282,1.0488281 0.1619707,0.2277212 0.3621067,0.42595 0.5898437,0.5878906 0.275614,0.1959729 0.560031,0.3002723 1.048828,0.4882812 l 0.830078,0.3183594 -0.830078,0.3203125 C 11.122525,5.6743392 10.8381,5.776707 10.5625,5.9726562 10.334763,6.1345969 10.134627,6.3347788 9.9726563,6.5625 9.7766539,6.8381233 9.6743103,7.1225026 9.4863281,7.6113281 L 9.1660156,8.4414063 8.8476563,7.6113281 C 8.6596473,7.1225109 8.55536,6.8381177 8.359375,6.5625 8.1974267,6.3347399 7.9992444,6.1346045 7.7714844,5.9726562 7.4958836,5.7766872 7.211479,5.6743392 6.7226562,5.4863281 L 5.8925781,5.1660156 6.7226562,4.8476562 C 7.2114735,4.6596473 7.4958692,4.5553677 7.7714844,4.359375 7.9992444,4.1974267 8.1974267,3.9992444 8.359375,3.7714844 8.5553677,3.4958692 8.6596473,3.2114735 8.8476563,2.7226563 Z"
     id="path2" />
</svg>
