<svg width="64" height="64" viewBox="0 0 64 64" fill="none" xmlns="http://www.w3.org/2000/svg">
<path d="M32 54.5926C34.8307 57.1262 38.5688 58.6667 42.6667 58.6667C51.5033 58.6667 58.6667 51.5033 58.6667 42.6667C58.6667 35.2882 53.6722 29.0763 46.8796 27.2272M17.1205 27.2271C10.3279 29.0762 5.33337 35.2882 5.33337 42.6667C5.33337 51.5033 12.4968 58.6667 21.3334 58.6667C30.1699 58.6667 37.3334 51.5033 37.3334 42.6667C37.3334 40.5854 36.936 38.5969 36.2129 36.7729M48 21.3334C48 30.1699 40.8366 37.3334 32 37.3334C23.1635 37.3334 16 30.1699 16 21.3334C16 12.4968 23.1635 5.33337 32 5.33337C40.8366 5.33337 48 12.4968 48 21.3334Z" stroke="#A4A7AE" stroke-width="2" stroke-linecap="round" stroke-linejoin="round"/>
</svg>
