<svg width="64" height="64" viewBox="0 0 64 64" fill="none" xmlns="http://www.w3.org/2000/svg">
<path d="M6.66543 24H57.3321M26.6654 8L21.3321 24L31.9988 54.6667L42.6654 24L37.3321 8M33.6376 54.0334L57.5273 25.3657C57.9322 24.8799 58.1346 24.6369 58.212 24.3658C58.2802 24.1267 58.2802 23.8733 58.212 23.6342C58.1346 23.363 57.9322 23.1201 57.5273 22.6343L45.9718 8.76761C45.7366 8.48545 45.6191 8.34437 45.475 8.24295C45.3473 8.15309 45.2048 8.08635 45.054 8.04578C44.8838 8 44.7002 8 44.3329 8H19.6646C19.2973 8 19.1137 8 18.9435 8.04578C18.7927 8.08635 18.6503 8.15309 18.5226 8.24295C18.3785 8.34437 18.2609 8.48545 18.0258 8.76761L6.4702 22.6343C6.06533 23.1201 5.86289 23.363 5.78553 23.6342C5.71732 23.8733 5.71732 24.1267 5.78553 24.3658C5.86289 24.6369 6.06533 24.8799 6.4702 25.3657L30.3599 54.0333C30.9227 54.7087 31.2041 55.0464 31.541 55.1696C31.8366 55.2776 32.1609 55.2776 32.4565 55.1696C32.7934 55.0464 33.0748 54.7087 33.6376 54.0334Z" stroke="#A4A7AE" stroke-width="2" stroke-linecap="round" stroke-linejoin="round"/>
</svg>
