<svg xmlns="http://www.w3.org/2000/svg" version="1.1" xmlns:xlink="http://www.w3.org/1999/xlink" width="48" height="48"><svg width="48" height="48" viewBox="0 0 48 48" fill="none" xmlns="http://www.w3.org/2000/svg">
<path d="M5.19286 12.8934C10.9431 12.3107 13.7926 14.2894 14.8164 20.0294C15.4364 23.4849 15.5331 27.0385 15.9085 30.9844C18.7011 26.2078 23.0863 25.9367 27.5967 25.954C34.1091 25.9713 40.6329 25.9598 47.3159 25.9598C47.3671 25.3252 47.3955 24.6849 47.3955 24.0387C47.3955 10.7647 36.7823 0 23.6949 0C14.3671 0 6.29627 5.46886 2.42864 13.4183C3.33867 13.1933 4.26008 12.9914 5.18717 12.8934H5.19286Z" fill="#181D27"></path>
<path d="M11.6939 40.1396C11.3242 35.1264 11.0114 30.1076 10.6246 25.0944C10.5336 23.8945 10.3175 22.6831 10.016 21.5178C9.17424 18.2814 7.41106 17.1277 4.10651 17.693C2.94053 17.8949 1.79162 18.1891 0.642707 18.4834C0.227506 20.2659 0 22.1235 0 24.033C0 33.0266 4.87435 40.8607 12.0863 44.9854C11.9498 43.3759 11.8133 41.7606 11.6939 40.1396Z" fill="#181D27"></path>
<path d="M29.5077 30.8287C26.8231 31.019 24.2011 31.0306 21.6473 31.4459C19.4064 31.8094 18.047 33.5285 17.7171 35.7379C17.2166 39.0723 16.9095 42.4356 16.6536 45.7988C16.6194 46.2372 16.591 46.618 16.5625 46.9583C18.8149 47.6794 21.2151 48.0717 23.7063 48.0717C26.1975 48.0717 28.5181 47.6967 30.742 46.993C30.3438 41.7375 29.9457 36.5167 29.5134 30.8229L29.5077 30.8287Z" fill="#181D27"></path>
<path d="M38.8469 30.8864C36.6117 30.7767 35.7073 31.3998 35.6561 33.8458C35.5708 37.6128 35.2409 41.3799 34.9395 45.2046C40.411 42.2106 44.5858 37.0936 46.4059 30.944C43.8748 30.9729 41.3552 31.0133 38.8469 30.8864Z" fill="#181D27"></path>
</svg><style>@media (prefers-color-scheme: light) { :root { filter: none; } }
@media (prefers-color-scheme: dark) { :root { filter: invert(100%); } }
</style></svg>