<svg width="191" height="48" viewBox="0 0 191 48" fill="none" xmlns="http://www.w3.org/2000/svg">
<g clip-path="url(#clip0_2027_2440)">
<path d="M68.3662 45.4664C68.3662 45.8551 68.3189 46.2054 68.229 46.5174C68.1391 46.8293 68.0018 47.0933 67.822 47.314C67.6422 47.5348 67.4151 47.7028 67.1454 47.8179C66.8757 47.9331 66.5587 47.9955 66.1991 47.9955C65.8395 47.9955 65.5367 47.9427 65.2764 47.8323C65.0162 47.722 64.8033 47.5684 64.6329 47.362C64.4626 47.1557 64.3348 46.9013 64.2544 46.5942C64.1692 46.2918 64.1314 45.9367 64.1314 45.5432C64.1314 45.1496 64.174 44.8185 64.2686 44.5114C64.3585 44.2042 64.4957 43.9403 64.6755 43.7243C64.8553 43.5083 65.0824 43.3404 65.3521 43.2204C65.6218 43.1052 65.9389 43.0428 66.3032 43.0428C66.6675 43.0428 66.9562 43.0956 67.2164 43.2012C67.4766 43.3068 67.6896 43.4651 67.8646 43.6667C68.0397 43.8683 68.1627 44.1226 68.2479 44.425C68.3331 44.7273 68.3756 45.0728 68.3756 45.4616L68.3662 45.4664ZM67.699 45.5096C67.699 45.236 67.6754 44.9817 67.628 44.7513C67.5807 44.5162 67.5003 44.3146 67.3915 44.1418C67.2826 43.969 67.1312 43.8347 66.9467 43.7387C66.7622 43.6427 66.5303 43.5947 66.2606 43.5947C65.9909 43.5947 65.7591 43.6475 65.5745 43.7531C65.39 43.8587 65.2386 43.9978 65.125 44.1706C65.0067 44.3434 64.9263 44.5449 64.8742 44.7801C64.8222 45.0105 64.7985 45.2552 64.7985 45.5096C64.7985 45.7927 64.8222 46.0519 64.8695 46.2918C64.9168 46.5318 64.9925 46.7333 65.1014 46.9061C65.2102 47.0789 65.3569 47.2133 65.5414 47.3092C65.7259 47.4052 65.9578 47.4532 66.2322 47.4532C66.5067 47.4532 66.7385 47.4004 66.9278 47.2948C67.117 47.1893 67.2684 47.0501 67.382 46.8725C67.4956 46.6949 67.576 46.4886 67.628 46.2582C67.6754 46.0231 67.699 45.7783 67.699 45.5192V45.5096Z" fill="#181D27"/>
<path d="M74.0204 47.832C74.0204 47.832 74.0204 47.8704 74.011 47.8848C74.0015 47.8992 73.9873 47.9136 73.9637 47.9232C73.94 47.9328 73.9069 47.9424 73.8596 47.9472C73.8123 47.952 73.7555 47.9568 73.6845 47.9568C73.623 47.9568 73.5709 47.9568 73.5284 47.9472C73.4858 47.9376 73.4574 47.9328 73.429 47.9232C73.4053 47.9136 73.3864 47.8944 73.3722 47.8752C73.358 47.856 73.3486 47.832 73.3391 47.8032L72.9038 46.6707C72.8517 46.5411 72.7997 46.4259 72.7429 46.3155C72.6861 46.2051 72.6246 46.114 72.5489 46.0372C72.4732 45.9604 72.3833 45.898 72.2792 45.8548C72.1751 45.8116 72.0521 45.7924 71.9101 45.7924H71.489V47.8416C71.489 47.8416 71.4843 47.88 71.4748 47.8944C71.4654 47.9088 71.4465 47.9232 71.4228 47.928C71.3991 47.9328 71.366 47.9424 71.3282 47.952C71.2856 47.9568 71.2383 47.9616 71.1767 47.9616C71.1152 47.9616 71.0632 47.9616 71.0253 47.952C70.9875 47.9424 70.9544 47.9376 70.9307 47.928C70.907 47.9184 70.8881 47.9088 70.8787 47.8944C70.8692 47.88 70.8645 47.8608 70.8645 47.8416V43.3929C70.8645 43.2969 70.8881 43.2297 70.9402 43.1913C70.9922 43.1529 71.0443 43.1337 71.101 43.1337H72.1089C72.2272 43.1337 72.3265 43.1337 72.407 43.1433C72.4874 43.1529 72.5584 43.1577 72.6199 43.1625C72.8044 43.1961 72.9653 43.2441 73.1072 43.3161C73.2492 43.3833 73.3675 43.4744 73.4621 43.58C73.5567 43.6856 73.6277 43.8104 73.675 43.9448C73.7224 44.0839 73.746 44.2327 73.746 44.4007C73.746 44.5686 73.7224 44.7078 73.6798 44.8326C73.6372 44.9622 73.5757 45.0725 73.4952 45.1685C73.4148 45.2645 73.3202 45.3509 73.2066 45.4229C73.0931 45.4949 72.97 45.5573 72.8281 45.6052C72.9085 45.6388 72.9748 45.682 73.041 45.7396C73.1025 45.7924 73.164 45.8548 73.2208 45.9316C73.2776 46.0036 73.3296 46.09 73.3769 46.1859C73.4243 46.2819 73.4763 46.3923 73.5236 46.5123L73.9495 47.5729C73.9826 47.6593 74.0063 47.7265 74.0157 47.7601C74.0252 47.7936 74.0299 47.8224 74.0299 47.8416L74.0204 47.832ZM73.0694 44.4535C73.0694 44.2663 73.0268 44.1079 72.9464 43.9783C72.8659 43.8488 72.724 43.7528 72.53 43.7C72.4685 43.6808 72.4022 43.6712 72.3218 43.6616C72.2461 43.6568 72.142 43.652 72.019 43.652H71.489V45.2693H72.1041C72.2698 45.2693 72.4117 45.2501 72.5347 45.2069C72.6577 45.1685 72.7571 45.1109 72.8375 45.0342C72.918 44.9622 72.9748 44.8758 73.0126 44.775C73.0505 44.6742 73.0694 44.5686 73.0694 44.4535Z" fill="#181D27"/>
<path d="M79.9255 43.772C79.9255 43.82 79.9255 43.8584 79.916 43.8968C79.9113 43.9352 79.9018 43.9639 79.8924 43.9879C79.8829 44.0119 79.8687 44.0263 79.8545 44.0407C79.8403 44.0551 79.8261 44.0551 79.8072 44.0551C79.7788 44.0551 79.7268 44.0311 79.6605 43.9831C79.5943 43.9351 79.4997 43.8824 79.3861 43.8248C79.2725 43.7672 79.1353 43.7144 78.9744 43.6664C78.8136 43.6184 78.6243 43.5944 78.4066 43.5944C78.1464 43.5944 77.9098 43.6424 77.7016 43.7384C77.4934 43.8344 77.3184 43.9687 77.1764 44.1415C77.0345 44.3143 76.9209 44.5158 76.8452 44.751C76.7695 44.9862 76.7317 45.2405 76.7317 45.5189C76.7317 45.826 76.7742 46.0996 76.8594 46.3347C76.9446 46.5747 77.0629 46.7714 77.2096 46.9346C77.3562 47.0978 77.536 47.2225 77.7442 47.3041C77.9524 47.3905 78.1748 47.4289 78.4256 47.4289C78.5723 47.4289 78.7189 47.4097 78.8703 47.3761C79.0218 47.3377 79.159 47.2849 79.2915 47.2129V45.8116H78.1937C78.1511 45.8116 78.1228 45.7924 78.0991 45.7492C78.0802 45.706 78.066 45.6436 78.066 45.5525C78.066 45.5045 78.066 45.4661 78.0754 45.4325C78.0802 45.3989 78.0896 45.3701 78.0991 45.3509C78.1086 45.3317 78.1228 45.3125 78.1369 45.3029C78.1511 45.2933 78.1701 45.2885 78.1937 45.2885H79.6984C79.7268 45.2885 79.7504 45.2933 79.7788 45.3029C79.8072 45.3125 79.8309 45.3269 79.8545 45.3461C79.8782 45.3653 79.8924 45.3941 79.9066 45.4277C79.9208 45.4613 79.9255 45.5045 79.9255 45.5477V47.3809C79.9255 47.4433 79.916 47.5009 79.8924 47.5489C79.8687 47.5969 79.8261 47.6353 79.7552 47.6737C79.6842 47.7121 79.5943 47.7504 79.4807 47.7888C79.3672 47.8272 79.2536 47.8656 79.1306 47.8944C79.0123 47.9232 78.8893 47.9472 78.7663 47.9616C78.6432 47.976 78.5249 47.9856 78.4019 47.9856C78.0376 47.9856 77.7064 47.928 77.4225 47.8128C77.1386 47.6977 76.8925 47.5345 76.6938 47.3185C76.4951 47.1074 76.3437 46.853 76.2396 46.5555C76.1355 46.2579 76.0834 45.9268 76.0834 45.5572C76.0834 45.1877 76.1402 44.8326 76.2538 44.5206C76.3673 44.2087 76.5282 43.9447 76.7317 43.7288C76.9398 43.5128 77.1859 43.3401 77.4745 43.2201C77.7631 43.1001 78.0849 43.0377 78.435 43.0377C78.6148 43.0377 78.7852 43.0521 78.9461 43.0857C79.1069 43.1193 79.2441 43.1577 79.3672 43.2009C79.4902 43.2441 79.5943 43.2921 79.6795 43.3401C79.7646 43.3928 79.8214 43.4312 79.8545 43.4648C79.8876 43.4984 79.9066 43.532 79.9208 43.5752C79.935 43.6184 79.9397 43.676 79.9397 43.7576L79.9255 43.772Z" fill="#181D27"/>
<path d="M86.1476 47.7025C86.1665 47.7552 86.176 47.8032 86.1807 47.8368C86.1807 47.8704 86.1712 47.8944 86.1523 47.9136C86.1334 47.9328 86.1002 47.9424 86.0529 47.9472C86.0056 47.952 85.9488 47.9568 85.8731 47.9568C85.7974 47.9568 85.7359 47.9568 85.6933 47.952C85.646 47.952 85.6129 47.9424 85.5892 47.9328C85.5656 47.9232 85.5466 47.9136 85.5372 47.8992C85.5277 47.8848 85.5135 47.8656 85.5041 47.8416L85.0971 46.6706H83.1288L82.7408 47.8272C82.7408 47.8272 82.7219 47.8704 82.7124 47.8848C82.6982 47.8992 82.684 47.9136 82.6604 47.928C82.6367 47.9376 82.6036 47.9472 82.561 47.952C82.5184 47.952 82.4616 47.9616 82.3954 47.9616C82.3292 47.9616 82.2676 47.9616 82.2203 47.952C82.173 47.9424 82.1446 47.9328 82.1257 47.9184C82.1068 47.8992 82.0973 47.8752 82.102 47.8416C82.102 47.808 82.1162 47.7648 82.1352 47.7121L83.725 43.2441C83.7344 43.2153 83.7486 43.1961 83.7628 43.1769C83.777 43.1577 83.8007 43.1481 83.8338 43.1385C83.8622 43.1289 83.9048 43.1193 83.9521 43.1193C83.9994 43.1193 84.0609 43.1145 84.1319 43.1145C84.2076 43.1145 84.2738 43.1145 84.3259 43.1193C84.3779 43.1193 84.4205 43.1289 84.4489 43.1385C84.482 43.1481 84.5057 43.1625 84.5246 43.1817C84.5435 43.2009 84.553 43.2249 84.5672 43.2489L86.157 47.7121L86.1476 47.7025ZM84.1082 43.7624L83.2897 46.1571H84.9363L84.1082 43.7624Z" fill="#181D27"/>
<path d="M92.0195 47.6641C92.0195 47.7121 92.01 47.7552 91.9958 47.7888C91.9816 47.8224 91.958 47.8512 91.9296 47.8752C91.9012 47.8992 91.8728 47.9136 91.8397 47.9232C91.8066 47.9328 91.7734 47.9376 91.7403 47.9376H91.5321C91.4659 47.9376 91.4091 47.9328 91.3618 47.9184C91.3145 47.904 91.2672 47.88 91.2198 47.8416C91.1773 47.808 91.1299 47.7552 91.0874 47.6977C91.0448 47.6353 90.9975 47.5585 90.9454 47.4577L89.4975 44.7222C89.4218 44.583 89.3461 44.4343 89.2704 44.2807C89.1947 44.1271 89.1237 43.9735 89.0575 43.8296H89.048C89.048 44.0071 89.0575 44.1895 89.0575 44.3767C89.0575 44.5638 89.0575 44.7462 89.0575 44.9286V47.832C89.0575 47.832 89.0528 47.8656 89.0433 47.88C89.0338 47.8944 89.0149 47.9088 88.9913 47.9184C88.9676 47.928 88.9345 47.9328 88.8966 47.9424C88.8588 47.9472 88.8067 47.952 88.7452 47.952C88.6837 47.952 88.6316 47.952 88.5938 47.9424C88.5559 47.9328 88.5228 47.928 88.4992 47.9184C88.4755 47.9088 88.4613 47.8992 88.4471 47.88C88.4377 47.8656 88.4329 47.8464 88.4329 47.832V43.3976C88.4329 43.2969 88.4613 43.2297 88.5181 43.1865C88.5749 43.1433 88.6316 43.1241 88.6979 43.1241H89.0102C89.0812 43.1241 89.1427 43.1289 89.1947 43.1433C89.2468 43.1577 89.2893 43.1769 89.3272 43.2057C89.365 43.2345 89.4029 43.2729 89.4408 43.3257C89.4786 43.3785 89.5165 43.4408 89.5543 43.5176L90.6662 45.6292C90.7325 45.7588 90.7987 45.8836 90.865 46.0084C90.9265 46.1331 90.988 46.2531 91.0495 46.3731C91.111 46.4931 91.1678 46.6083 91.2246 46.7234C91.2813 46.8386 91.3381 46.9538 91.3949 47.069C91.3949 46.8722 91.3854 46.6706 91.3854 46.4595C91.3854 46.2483 91.3854 46.042 91.3854 45.85V43.2441C91.3854 43.2441 91.3902 43.2105 91.3996 43.1961C91.4091 43.1817 91.428 43.1673 91.4517 43.1577C91.4753 43.1481 91.5085 43.1385 91.5463 43.1337C91.5842 43.1337 91.6362 43.1289 91.7025 43.1289C91.7592 43.1289 91.8066 43.1289 91.8491 43.1337C91.8917 43.1385 91.9248 43.1481 91.9438 43.1577C91.9674 43.1673 91.9816 43.1817 91.9958 43.1961C92.0053 43.2105 92.01 43.2249 92.01 43.2441V47.6785L92.0195 47.6641Z" fill="#181D27"/>
<path d="M95.4121 47.832C95.4121 47.832 95.4073 47.8704 95.3979 47.8848C95.3884 47.8992 95.3695 47.9136 95.3458 47.9184C95.3221 47.9232 95.289 47.9328 95.2512 47.9424C95.2086 47.9472 95.1613 47.952 95.0998 47.952C95.0383 47.952 94.9909 47.952 94.9484 47.9424C94.9058 47.9376 94.8726 47.928 94.849 47.9184C94.8253 47.9088 94.8064 47.8992 94.7969 47.8848C94.7875 47.8704 94.7827 47.8512 94.7827 47.832V43.2153C94.7827 43.2153 94.7875 43.1769 94.7969 43.1625C94.8064 43.1481 94.8253 43.1337 94.8537 43.1289C94.8821 43.1241 94.9105 43.1145 94.9531 43.1049C94.9957 43.0953 95.043 43.0953 95.0998 43.0953C95.1613 43.0953 95.2133 43.0953 95.2512 43.1049C95.2938 43.1097 95.3221 43.1193 95.3458 43.1289C95.3695 43.1385 95.3884 43.1481 95.3979 43.1625C95.4073 43.1769 95.4121 43.1961 95.4121 43.2153V47.832Z" fill="#181D27"/>
<path d="M101.336 47.2465C101.336 47.2849 101.336 47.3233 101.336 47.3521C101.336 47.3809 101.331 47.4097 101.322 47.4289C101.317 47.4529 101.308 47.4721 101.298 47.4865C101.289 47.5057 101.27 47.5249 101.246 47.5489C101.222 47.5729 101.17 47.6113 101.095 47.6641C101.019 47.7169 100.92 47.7648 100.801 47.8128C100.683 47.8608 100.551 47.904 100.404 47.9376C100.257 47.9712 100.092 47.9856 99.9118 47.9856C99.6043 47.9856 99.3251 47.9328 99.0791 47.832C98.833 47.7312 98.6201 47.5729 98.445 47.3713C98.2699 47.1698 98.1375 46.9154 98.0428 46.6179C97.9482 46.3203 97.9009 45.9748 97.9009 45.586C97.9009 45.1973 97.9529 44.8326 98.0523 44.5206C98.1517 44.2087 98.2936 43.9447 98.4781 43.7288C98.6627 43.5128 98.8803 43.3449 99.1358 43.2345C99.3913 43.1193 99.6752 43.0617 99.9828 43.0617C100.12 43.0617 100.252 43.0761 100.38 43.1001C100.508 43.1241 100.631 43.1577 100.74 43.1961C100.849 43.2345 100.948 43.2825 101.033 43.3353C101.118 43.388 101.18 43.4312 101.208 43.4648C101.241 43.4984 101.26 43.5224 101.275 43.5416C101.284 43.5608 101.293 43.58 101.298 43.604C101.303 43.628 101.308 43.6568 101.312 43.6856C101.312 43.7192 101.317 43.7576 101.317 43.8008C101.317 43.8488 101.317 43.892 101.308 43.9255C101.303 43.9591 101.293 43.9879 101.284 44.0119C101.275 44.0359 101.26 44.0503 101.251 44.0647C101.237 44.0743 101.222 44.0791 101.199 44.0791C101.166 44.0791 101.118 44.0551 101.057 44.0071C100.995 43.9591 100.915 43.9064 100.82 43.8488C100.721 43.7912 100.607 43.7384 100.465 43.6904C100.323 43.6424 100.163 43.6184 99.9639 43.6184C99.7509 43.6184 99.5617 43.6616 99.3866 43.748C99.2115 43.8344 99.0649 43.9591 98.9418 44.1271C98.8188 44.2903 98.7242 44.4966 98.6579 44.7318C98.5917 44.9718 98.5586 45.2453 98.5586 45.5524C98.5586 45.8596 98.5917 46.1283 98.6579 46.3587C98.7242 46.5891 98.8141 46.7906 98.9371 46.9442C99.0601 47.1026 99.2068 47.2177 99.3866 47.2993C99.5617 47.3809 99.7651 47.4193 99.9875 47.4193C100.177 47.4193 100.342 47.3953 100.484 47.3473C100.626 47.2993 100.745 47.2465 100.844 47.1889C100.943 47.1314 101.024 47.0786 101.09 47.0306C101.156 46.9826 101.204 46.9586 101.241 46.9586C101.26 46.9586 101.275 46.9586 101.284 46.9682C101.298 46.9778 101.308 46.9922 101.312 47.0114C101.322 47.0306 101.327 47.0642 101.327 47.0978C101.327 47.1362 101.331 47.1841 101.331 47.2369L101.336 47.2465Z" fill="#181D27"/>
<path d="M110.033 47.2465C110.033 47.2849 110.033 47.3233 110.033 47.3521C110.033 47.3809 110.028 47.4097 110.019 47.4289C110.014 47.4529 110.004 47.4721 109.995 47.4865C109.985 47.5057 109.966 47.5249 109.943 47.5489C109.919 47.5729 109.867 47.6113 109.791 47.6641C109.716 47.7169 109.616 47.7648 109.498 47.8128C109.38 47.8608 109.247 47.904 109.101 47.9376C108.954 47.9712 108.788 47.9856 108.609 47.9856C108.301 47.9856 108.022 47.9328 107.776 47.832C107.53 47.7312 107.317 47.5729 107.142 47.3713C106.967 47.1698 106.834 46.9154 106.74 46.6179C106.645 46.3203 106.598 45.9748 106.598 45.586C106.598 45.1973 106.65 44.8326 106.749 44.5206C106.848 44.2087 106.99 43.9447 107.175 43.7288C107.359 43.5128 107.577 43.3449 107.833 43.2345C108.088 43.1193 108.372 43.0617 108.679 43.0617C108.817 43.0617 108.949 43.0761 109.077 43.1001C109.205 43.1241 109.328 43.1577 109.437 43.1961C109.545 43.2345 109.645 43.2825 109.73 43.3353C109.815 43.388 109.877 43.4312 109.905 43.4648C109.938 43.4984 109.957 43.5224 109.971 43.5416C109.981 43.5608 109.99 43.58 109.995 43.604C110 43.628 110.004 43.6568 110.009 43.6856C110.009 43.7192 110.014 43.7576 110.014 43.8008C110.014 43.8488 110.014 43.892 110.004 43.9255C110 43.9591 109.99 43.9879 109.981 44.0119C109.971 44.0359 109.957 44.0503 109.948 44.0647C109.933 44.0743 109.919 44.0791 109.896 44.0791C109.862 44.0791 109.815 44.0551 109.754 44.0071C109.692 43.9591 109.612 43.9064 109.517 43.8488C109.418 43.7912 109.304 43.7384 109.162 43.6904C109.02 43.6424 108.859 43.6184 108.661 43.6184C108.448 43.6184 108.258 43.6616 108.083 43.748C107.908 43.8344 107.762 43.9591 107.639 44.1271C107.516 44.2903 107.421 44.4966 107.355 44.7318C107.288 44.9718 107.255 45.2453 107.255 45.5524C107.255 45.8596 107.288 46.1283 107.355 46.3587C107.421 46.5891 107.511 46.7906 107.634 46.9442C107.757 47.1026 107.904 47.2177 108.083 47.2993C108.258 47.3809 108.462 47.4193 108.684 47.4193C108.873 47.4193 109.039 47.3953 109.181 47.3473C109.323 47.2993 109.441 47.2465 109.541 47.1889C109.64 47.1314 109.72 47.0786 109.787 47.0306C109.853 46.9826 109.9 46.9586 109.938 46.9586C109.957 46.9586 109.971 46.9586 109.981 46.9682C109.995 46.9778 110.004 46.9922 110.009 47.0114C110.019 47.0306 110.023 47.0642 110.023 47.0978C110.023 47.1362 110.028 47.1841 110.028 47.2369L110.033 47.2465Z" fill="#181D27"/>
<path d="M115.919 47.7025C115.938 47.7552 115.947 47.8032 115.952 47.8368C115.952 47.8704 115.942 47.8944 115.924 47.9136C115.905 47.9328 115.872 47.9424 115.824 47.9472C115.777 47.952 115.72 47.9568 115.644 47.9568C115.569 47.9568 115.507 47.9568 115.465 47.952C115.417 47.952 115.384 47.9424 115.361 47.9328C115.337 47.9232 115.318 47.9136 115.308 47.8992C115.299 47.8848 115.285 47.8656 115.275 47.8416L114.868 46.6706H112.9L112.512 47.8272C112.512 47.8272 112.493 47.8704 112.484 47.8848C112.469 47.8992 112.455 47.9136 112.432 47.928C112.408 47.9376 112.375 47.9472 112.332 47.952C112.29 47.952 112.233 47.9616 112.167 47.9616C112.1 47.9616 112.039 47.9616 111.992 47.952C111.944 47.9424 111.916 47.9328 111.897 47.9184C111.878 47.8992 111.869 47.8752 111.873 47.8416C111.873 47.808 111.888 47.7648 111.906 47.7121L113.496 43.2441C113.506 43.2153 113.52 43.1961 113.534 43.1769C113.548 43.1577 113.572 43.1481 113.605 43.1385C113.633 43.1289 113.676 43.1193 113.723 43.1193C113.771 43.1193 113.832 43.1145 113.903 43.1145C113.979 43.1145 114.045 43.1145 114.097 43.1193C114.149 43.1193 114.192 43.1289 114.22 43.1385C114.253 43.1481 114.277 43.1625 114.296 43.1817C114.315 43.2009 114.324 43.2249 114.338 43.2489L115.928 47.7121L115.919 47.7025ZM113.88 43.7624L113.061 46.1571H114.708L113.88 43.7624Z" fill="#181D27"/>
<path d="M120.755 46.5795C120.755 46.805 120.712 47.0066 120.632 47.1794C120.551 47.3569 120.438 47.5057 120.291 47.6257C120.144 47.7504 119.974 47.8416 119.78 47.904C119.586 47.9664 119.373 47.9952 119.146 47.9952C118.985 47.9952 118.838 47.9808 118.706 47.952C118.573 47.9232 118.45 47.8896 118.341 47.8512C118.233 47.8128 118.147 47.7696 118.072 47.7264C118.001 47.6833 117.949 47.6497 117.92 47.6209C117.892 47.5921 117.873 47.5537 117.859 47.5057C117.845 47.4577 117.84 47.4001 117.84 47.3233C117.84 47.2705 117.84 47.2225 117.849 47.189C117.849 47.1554 117.864 47.1218 117.873 47.1026C117.882 47.0786 117.897 47.0642 117.911 47.0546C117.925 47.045 117.944 47.0402 117.963 47.0402C117.996 47.0402 118.043 47.0594 118.11 47.1026C118.171 47.1458 118.252 47.189 118.351 47.2417C118.45 47.2897 118.569 47.3377 118.706 47.3809C118.843 47.4241 119.004 47.4481 119.184 47.4481C119.321 47.4481 119.444 47.4289 119.557 47.3905C119.671 47.3521 119.77 47.2993 119.851 47.2321C119.931 47.165 119.997 47.0786 120.04 46.9826C120.083 46.8818 120.106 46.7714 120.106 46.6419C120.106 46.5075 120.078 46.3875 120.016 46.2915C119.955 46.1955 119.874 46.1091 119.775 46.0372C119.676 45.9652 119.562 45.898 119.434 45.8356C119.307 45.7732 119.174 45.7156 119.042 45.6484C118.909 45.586 118.777 45.5141 118.649 45.4373C118.521 45.3605 118.408 45.2693 118.308 45.1637C118.209 45.0581 118.128 44.9382 118.067 44.799C118.005 44.6598 117.972 44.4918 117.972 44.2951C117.972 44.0983 118.01 43.916 118.081 43.7576C118.152 43.5992 118.252 43.4696 118.379 43.3641C118.507 43.2585 118.658 43.1769 118.838 43.1193C119.013 43.0617 119.207 43.0377 119.411 43.0377C119.515 43.0377 119.624 43.0473 119.728 43.0665C119.837 43.0857 119.936 43.1097 120.026 43.1433C120.12 43.1721 120.206 43.2105 120.277 43.2489C120.352 43.2873 120.4 43.3209 120.423 43.3401C120.447 43.3641 120.461 43.3832 120.471 43.3976C120.48 43.412 120.485 43.4264 120.49 43.4504C120.494 43.4696 120.499 43.4984 120.499 43.5272C120.499 43.556 120.499 43.5944 120.499 43.6424C120.499 43.6856 120.499 43.724 120.494 43.7624C120.494 43.796 120.485 43.8248 120.48 43.8488C120.471 43.8728 120.461 43.892 120.447 43.9016C120.433 43.9112 120.419 43.9208 120.4 43.9208C120.371 43.9208 120.329 43.9016 120.272 43.868C120.215 43.8344 120.144 43.796 120.059 43.7528C119.974 43.7096 119.879 43.6712 119.766 43.6328C119.652 43.5944 119.524 43.58 119.382 43.58C119.25 43.58 119.136 43.5992 119.037 43.6328C118.938 43.6664 118.857 43.7144 118.796 43.7768C118.734 43.8344 118.687 43.9064 118.654 43.9879C118.621 44.0695 118.606 44.1559 118.606 44.2471C118.606 44.3815 118.635 44.4966 118.696 44.5926C118.758 44.6886 118.838 44.775 118.938 44.847C119.037 44.919 119.155 44.991 119.283 45.0533C119.411 45.1157 119.543 45.1781 119.68 45.2405C119.818 45.3029 119.945 45.3749 120.078 45.4469C120.206 45.5237 120.324 45.61 120.423 45.7156C120.527 45.8164 120.608 45.9412 120.669 46.0804C120.731 46.2195 120.764 46.3875 120.764 46.5747L120.755 46.5795Z" fill="#181D27"/>
<path d="M126.57 47.832C126.57 47.832 126.57 47.8704 126.555 47.8848C126.546 47.8992 126.527 47.9136 126.503 47.9184C126.48 47.928 126.447 47.9328 126.409 47.9424C126.366 47.9472 126.319 47.952 126.262 47.952C126.201 47.952 126.149 47.952 126.106 47.9424C126.063 47.9328 126.035 47.928 126.011 47.9184C125.988 47.9088 125.969 47.8992 125.959 47.8848C125.95 47.8704 125.945 47.8512 125.945 47.832V45.7012H123.788V47.832C123.788 47.832 123.788 47.8704 123.773 47.8848C123.759 47.8992 123.745 47.9136 123.721 47.9184C123.698 47.9232 123.664 47.9328 123.627 47.9424C123.584 47.9472 123.537 47.952 123.475 47.952C123.414 47.952 123.366 47.952 123.324 47.9424C123.281 47.9328 123.248 47.928 123.224 47.9184C123.201 47.9088 123.182 47.8992 123.172 47.8848C123.163 47.8704 123.158 47.8512 123.158 47.832V43.2153C123.158 43.2153 123.158 43.1769 123.172 43.1625C123.187 43.1481 123.201 43.1337 123.224 43.1289C123.248 43.1241 123.281 43.1145 123.324 43.1049C123.366 43.0953 123.414 43.0953 123.475 43.0953C123.537 43.0953 123.589 43.0953 123.627 43.1049C123.664 43.1097 123.698 43.1193 123.721 43.1289C123.745 43.1385 123.764 43.1481 123.773 43.1625C123.783 43.1769 123.788 43.1961 123.788 43.2153V45.1397H125.945V43.2153C125.945 43.2153 125.945 43.1769 125.959 43.1625C125.974 43.1481 125.988 43.1337 126.011 43.1289C126.035 43.1241 126.068 43.1145 126.106 43.1049C126.144 43.0953 126.196 43.0953 126.262 43.0953C126.319 43.0953 126.371 43.0953 126.409 43.1049C126.447 43.1097 126.48 43.1193 126.503 43.1289C126.527 43.1385 126.546 43.1481 126.555 43.1625C126.565 43.1769 126.57 43.1961 126.57 43.2153V47.832Z" fill="#181D27"/>
<path d="M134.486 47.832C134.486 47.832 134.486 47.8704 134.471 47.8848C134.462 47.8992 134.443 47.9136 134.419 47.9184C134.396 47.928 134.363 47.9328 134.325 47.9424C134.287 47.952 134.235 47.952 134.173 47.952C134.117 47.952 134.065 47.952 134.022 47.9424C133.979 47.9328 133.946 47.928 133.923 47.9184C133.899 47.9088 133.88 47.8992 133.871 47.8848C133.861 47.8704 133.856 47.8512 133.856 47.832V43.6424H133.847L132.177 47.8464C132.177 47.8464 132.158 47.88 132.144 47.8896C132.129 47.904 132.11 47.9136 132.087 47.9232C132.063 47.9328 132.03 47.9376 131.997 47.9424C131.964 47.9424 131.921 47.9472 131.869 47.9472C131.817 47.9472 131.774 47.9472 131.737 47.9376C131.699 47.928 131.67 47.928 131.647 47.9184C131.623 47.9088 131.604 47.8992 131.59 47.8848C131.576 47.8704 131.566 47.8608 131.562 47.8464L129.967 43.6424V47.832C129.967 47.832 129.967 47.8704 129.953 47.8848C129.943 47.8992 129.924 47.9136 129.901 47.9184C129.877 47.928 129.844 47.9328 129.801 47.9424C129.759 47.9472 129.711 47.952 129.645 47.952C129.579 47.952 129.536 47.952 129.494 47.9424C129.451 47.9376 129.423 47.928 129.399 47.9184C129.376 47.9088 129.361 47.8992 129.352 47.8848C129.342 47.8704 129.338 47.8512 129.338 47.832V43.412C129.338 43.3065 129.366 43.2345 129.418 43.1913C129.47 43.1481 129.532 43.1241 129.603 43.1241H129.991C130.071 43.1241 130.137 43.1337 130.199 43.1481C130.26 43.1625 130.312 43.1865 130.355 43.2201C130.398 43.2537 130.435 43.2921 130.469 43.3449C130.502 43.3977 130.525 43.4552 130.549 43.5176L131.902 46.997H131.921L133.331 43.5272C133.36 43.4552 133.388 43.3881 133.421 43.3353C133.454 43.2825 133.487 43.2441 133.525 43.2105C133.563 43.1769 133.606 43.1577 133.653 43.1433C133.7 43.1289 133.752 43.1241 133.814 43.1241H134.221C134.259 43.1241 134.292 43.1289 134.325 43.1385C134.358 43.1481 134.386 43.1673 134.41 43.1913C134.434 43.2153 134.453 43.2441 134.467 43.2825C134.481 43.3161 134.49 43.3641 134.49 43.4168V47.8368L134.486 47.832Z" fill="#181D27"/>
<path d="M139.884 47.6641C139.884 47.7073 139.884 47.7457 139.875 47.7792C139.875 47.8128 139.861 47.8416 139.851 47.8608C139.837 47.8848 139.823 47.8992 139.809 47.9088C139.795 47.9184 139.776 47.9232 139.757 47.9232H137.481C137.424 47.9232 137.372 47.904 137.32 47.8656C137.268 47.8272 137.244 47.7601 137.244 47.6641V43.3785C137.244 43.2825 137.268 43.2153 137.32 43.1769C137.372 43.1385 137.424 43.1193 137.481 43.1193H139.728C139.728 43.1193 139.766 43.1193 139.78 43.1337C139.795 43.1433 139.809 43.1625 139.818 43.1817C139.828 43.2057 139.837 43.2345 139.842 43.2633C139.847 43.2921 139.851 43.3401 139.851 43.3881C139.851 43.4312 139.851 43.4696 139.842 43.5032C139.837 43.5368 139.828 43.5656 139.818 43.5848C139.809 43.604 139.795 43.6232 139.78 43.6328C139.766 43.6424 139.747 43.6472 139.728 43.6472H137.873V45.1541H139.463C139.463 45.1541 139.501 45.1589 139.515 45.1733C139.53 45.1829 139.544 45.2021 139.558 45.2213C139.567 45.2405 139.577 45.2693 139.582 45.3029C139.586 45.3365 139.591 45.3797 139.591 45.4277C139.591 45.4709 139.591 45.5093 139.582 45.5429C139.582 45.5764 139.567 45.6004 139.558 45.6196C139.548 45.6388 139.534 45.6532 139.515 45.6628C139.501 45.6724 139.482 45.6772 139.463 45.6772H137.873V47.3953H139.752C139.752 47.3953 139.79 47.4001 139.804 47.4097C139.818 47.4193 139.832 47.4337 139.847 47.4577C139.861 47.4817 139.866 47.5057 139.87 47.5393C139.875 47.5729 139.88 47.6161 139.88 47.6641H139.884Z" fill="#181D27"/>
<path d="M145.567 47.832C145.567 47.832 145.567 47.8704 145.558 47.8848C145.548 47.8992 145.534 47.9136 145.51 47.9232C145.487 47.9328 145.454 47.9424 145.406 47.9472C145.364 47.9472 145.302 47.9568 145.231 47.9568C145.17 47.9568 145.118 47.9568 145.075 47.9472C145.037 47.9472 145.004 47.9328 144.976 47.9232C144.952 47.9136 144.933 47.8944 144.919 47.8752C144.905 47.856 144.895 47.832 144.886 47.8032L144.45 46.6707C144.398 46.5411 144.346 46.4259 144.29 46.3155C144.233 46.2051 144.171 46.114 144.096 46.0372C144.02 45.9604 143.93 45.898 143.826 45.8548C143.722 45.8116 143.599 45.7924 143.457 45.7924H143.036V47.8416C143.036 47.8416 143.031 47.88 143.017 47.8944C143.007 47.9088 142.988 47.9232 142.965 47.928C142.941 47.9376 142.913 47.9424 142.87 47.952C142.827 47.9616 142.78 47.9616 142.719 47.9616C142.657 47.9616 142.605 47.9616 142.567 47.952C142.529 47.9472 142.496 47.9376 142.473 47.928C142.449 47.9184 142.43 47.9088 142.421 47.8944C142.411 47.88 142.406 47.8608 142.406 47.8416V43.3929C142.406 43.2969 142.43 43.2297 142.482 43.1913C142.534 43.1529 142.586 43.1337 142.643 43.1337H143.651C143.769 43.1337 143.868 43.1337 143.949 43.1433C144.029 43.1481 144.1 43.1577 144.162 43.1625C144.346 43.1961 144.507 43.2441 144.649 43.3161C144.791 43.3881 144.909 43.4744 145.004 43.58C145.099 43.6856 145.17 43.8104 145.217 43.9448C145.264 44.0839 145.288 44.2327 145.288 44.4007C145.288 44.5686 145.264 44.7078 145.222 44.8326C145.179 44.9622 145.118 45.0725 145.037 45.1685C144.957 45.2645 144.862 45.3509 144.749 45.4229C144.635 45.4949 144.512 45.5573 144.37 45.6052C144.45 45.6388 144.517 45.682 144.583 45.7396C144.644 45.7924 144.706 45.8548 144.763 45.9316C144.819 46.0036 144.872 46.09 144.919 46.1859C144.966 46.2819 145.018 46.3923 145.066 46.5123L145.491 47.5729C145.525 47.6593 145.548 47.7265 145.558 47.7601C145.567 47.7936 145.572 47.8224 145.572 47.8416L145.567 47.832ZM144.621 44.4535C144.621 44.2663 144.578 44.1079 144.498 43.9783C144.417 43.8488 144.275 43.7528 144.081 43.7C144.02 43.6808 143.954 43.6712 143.873 43.6616C143.797 43.6568 143.693 43.652 143.57 43.652H143.04V45.2693H143.656C143.821 45.2693 143.963 45.2501 144.086 45.2069C144.204 45.1685 144.308 45.1109 144.389 45.0342C144.469 44.9574 144.526 44.8758 144.569 44.775C144.607 44.6742 144.625 44.5686 144.625 44.4535H144.621Z" fill="#181D27"/>
<path d="M150.62 47.6641C150.62 47.7073 150.62 47.7457 150.611 47.7792C150.611 47.8128 150.597 47.8416 150.587 47.8608C150.573 47.8848 150.559 47.8992 150.545 47.9088C150.531 47.9184 150.512 47.9232 150.493 47.9232H148.217C148.16 47.9232 148.108 47.904 148.056 47.8656C148.004 47.8272 147.98 47.7601 147.98 47.6641V43.3785C147.98 43.2825 148.004 43.2153 148.056 43.1769C148.108 43.1385 148.16 43.1193 148.217 43.1193H150.464C150.464 43.1193 150.502 43.1193 150.516 43.1337C150.531 43.1433 150.545 43.1625 150.554 43.1817C150.564 43.2057 150.573 43.2345 150.578 43.2633C150.583 43.2921 150.587 43.3401 150.587 43.3881C150.587 43.4312 150.587 43.4696 150.578 43.5032C150.573 43.5368 150.564 43.5656 150.554 43.5848C150.545 43.604 150.531 43.6232 150.516 43.6328C150.502 43.6424 150.483 43.6472 150.464 43.6472H148.609V45.1541H150.199C150.199 45.1541 150.237 45.1589 150.251 45.1733C150.266 45.1829 150.28 45.2021 150.294 45.2213C150.303 45.2405 150.313 45.2693 150.318 45.3029C150.322 45.3365 150.327 45.3797 150.327 45.4277C150.327 45.4709 150.327 45.5093 150.318 45.5429C150.318 45.5764 150.303 45.6004 150.294 45.6196C150.284 45.6388 150.27 45.6532 150.251 45.6628C150.237 45.6724 150.218 45.6772 150.199 45.6772H148.609V47.3953H150.488C150.488 47.3953 150.526 47.4001 150.54 47.4097C150.554 47.4193 150.568 47.4337 150.583 47.4577C150.597 47.4817 150.602 47.5057 150.606 47.5393C150.611 47.5729 150.616 47.6161 150.616 47.6641H150.62Z" fill="#181D27"/>
<path d="M5.19879 12.8934C10.949 12.3107 13.7986 14.2894 14.8224 20.0294C15.4423 23.4849 15.539 27.0385 15.9144 30.9844C18.7071 26.2078 23.0923 25.9367 27.6026 25.954C34.115 25.9713 40.6388 25.9598 47.3218 25.9598C47.373 25.3252 47.4015 24.6849 47.4015 24.0387C47.4015 10.7647 36.7882 0 23.7009 0C14.373 0 6.3022 5.46886 2.43457 13.4183C3.3446 13.1933 4.26601 12.9914 5.1931 12.8934H5.19879Z" fill="#181D27"/>
<path d="M11.6998 40.1396C11.3301 35.1264 11.0173 30.1076 10.6305 25.0944C10.5395 23.8945 10.3234 22.6831 10.022 21.5178C9.18018 18.2814 7.41699 17.1277 4.11244 17.693C2.94646 17.8949 1.79755 18.1891 0.648639 18.4834C0.233438 20.2659 0.00593185 22.1235 0.00593185 24.033C0.00593185 33.0266 4.88028 40.8607 12.0923 44.9854C11.9558 43.3759 11.8193 41.7606 11.6998 40.1396Z" fill="#181D27"/>
<path d="M29.5137 30.8287C26.8291 31.019 24.207 31.0306 21.6533 31.4459C19.4123 31.8094 18.053 33.5285 17.7231 35.7379C17.2226 39.0723 16.9154 42.4356 16.6595 45.7988C16.6254 46.2372 16.5969 46.618 16.5685 46.9583C18.8208 47.6794 21.221 48.0717 23.7122 48.0717C26.2034 48.0717 28.524 47.6967 30.7479 46.993C30.3498 41.7375 29.9516 36.5167 29.5194 30.8229L29.5137 30.8287Z" fill="#181D27"/>
<path d="M38.8529 30.8864C36.6176 30.7767 35.7132 31.3998 35.6621 33.8458C35.5767 37.6128 35.2469 41.3799 34.9454 45.2046C40.417 42.2106 44.5917 37.0936 46.4118 30.944C43.8808 30.9729 41.3611 31.0133 38.8529 30.8864Z" fill="#181D27"/>
<path d="M82.3528 25.6457C82.3528 26.8407 82.1304 27.9685 81.6809 29.0195C81.2314 30.0705 80.6258 30.9871 79.864 31.7598C79.1022 32.5324 78.1985 33.1515 77.1622 33.6027C76.126 34.0586 75.0141 34.2841 73.8359 34.2841C72.6577 34.2841 71.5458 34.0586 70.5096 33.6027C69.4734 33.1467 68.5696 32.5324 67.8078 31.7598C67.0413 30.9823 66.4357 30.0705 65.9909 29.0195C65.5414 27.9685 65.319 26.8407 65.319 25.6457C65.319 24.4507 65.5414 23.3278 65.9909 22.2719C66.4404 21.2209 67.0461 20.3043 67.8078 19.5316C68.5744 18.7542 69.4734 18.1399 70.5096 17.6888C71.5458 17.2329 72.6577 17.0073 73.8359 17.0073C74.645 17.0073 75.4115 17.1369 76.1449 17.3912C76.8783 17.6456 77.555 18.0055 78.1748 18.471C78.7994 18.9366 79.353 19.4885 79.8451 20.1315C80.3371 20.7746 80.7346 21.4705 81.0422 22.224V10.6917H82.3528V25.6457ZM66.6249 25.6457C66.6249 26.6631 66.8095 27.623 67.1833 28.5204C67.5523 29.4178 68.0681 30.2001 68.721 30.8624C69.3787 31.5246 70.1405 32.0525 71.0159 32.4413C71.8912 32.83 72.8281 33.022 73.8359 33.022C74.8438 33.022 75.7806 32.83 76.656 32.4413C77.5313 32.0525 78.2931 31.5294 78.9508 30.8624C79.6085 30.2001 80.1195 29.4178 80.4886 28.5204C80.8576 27.623 81.0469 26.6631 81.0469 25.6457C81.0469 24.6283 80.8624 23.6685 80.4886 22.771C80.1148 21.8736 79.6037 21.0914 78.9508 20.4291C78.2978 19.7668 77.5313 19.2389 76.656 18.8502C75.7806 18.4614 74.8438 18.2695 73.8359 18.2695C72.8281 18.2695 71.8912 18.4614 71.0159 18.8502C70.1405 19.2389 69.3787 19.762 68.721 20.4291C68.0681 21.0914 67.5523 21.8736 67.1833 22.771C66.8095 23.6685 66.6249 24.6283 66.6249 25.6457Z" fill="#181D27"/>
<path d="M73.8312 35.4887C72.4969 35.4887 71.2193 35.2248 70.0364 34.7112C68.8677 34.1977 67.8315 33.4923 66.9656 32.614C66.0997 31.7358 65.4042 30.6896 64.8979 29.4994C64.3869 28.3044 64.1314 27.0087 64.1314 25.6505C64.1314 24.2924 64.3916 23.0014 64.8979 21.8016C65.4042 20.6162 66.0997 19.5652 66.9656 18.687C67.8315 17.8088 68.8677 17.1033 70.0364 16.5898C71.2193 16.0715 72.4969 15.8123 73.8312 15.8123C74.7633 15.8123 75.6718 15.9611 76.5235 16.2586C77.3657 16.5514 78.1559 16.9737 78.8703 17.5064C79.2158 17.7656 79.5422 18.0439 79.8545 18.3511V9.4967H83.531V25.6505C83.531 27.0039 83.2707 28.2996 82.7645 29.4994C82.2582 30.6848 81.5626 31.7358 80.6967 32.614C79.8309 33.4923 78.7946 34.1977 77.6259 34.7112C76.443 35.2296 75.1655 35.4887 73.8312 35.4887ZM73.8312 19.4693C72.9937 19.4693 72.2082 19.6324 71.489 19.9492C70.7556 20.2755 70.1074 20.7218 69.5585 21.2785C69.0144 21.8304 68.5838 22.4879 68.2715 23.2366C67.964 23.9804 67.8078 24.7915 67.8078 25.6457C67.8078 26.5 67.964 27.311 68.2715 28.0549C68.5838 28.8035 69.0144 29.4658 69.5585 30.0129C70.1074 30.5696 70.7556 31.0159 71.489 31.3423C72.9274 31.9806 74.7349 31.9806 76.1781 31.3423C76.9115 31.0159 77.5597 30.5696 78.1086 30.0129C78.6574 29.4562 79.0833 28.8035 79.3956 28.0549C79.7031 27.311 79.8593 26.5 79.8593 25.6457C79.8593 24.7915 79.7031 23.9804 79.3956 23.2366C79.0833 22.4879 78.6527 21.8304 78.1086 21.2785C77.5597 20.7218 76.9115 20.2755 76.1781 19.9492C75.4589 19.6276 74.6687 19.4693 73.8359 19.4693H73.8312Z" fill="#181D27"/>
<path d="M87.7563 25.6457C87.7563 24.4507 87.9787 23.3277 88.4282 22.2719C88.8777 21.2209 89.4834 20.3043 90.2451 19.5316C91.0117 18.7542 91.9107 18.1399 92.9469 17.6888C93.9831 17.2329 95.095 17.0073 96.2732 17.0073C97.4514 17.0073 98.5633 17.2329 99.5995 17.6888C100.636 18.1447 101.539 18.759 102.301 19.5316C103.068 20.3091 103.673 21.2209 104.118 22.2719C104.568 23.3229 104.79 24.4507 104.79 25.6457C104.79 26.8407 104.568 27.9685 104.118 29.0195C103.669 30.0705 103.063 30.9871 102.301 31.7598C101.539 32.5324 100.636 33.1515 99.5995 33.6027C98.5633 34.0586 97.4514 34.2841 96.2732 34.2841C95.095 34.2841 93.9831 34.0586 92.9469 33.6027C91.9107 33.1467 91.0069 32.5324 90.2451 31.7598C89.4786 30.9823 88.873 30.0705 88.4282 29.0195C87.9787 27.9685 87.7563 26.8407 87.7563 25.6457ZM89.067 25.6457C89.067 26.6631 89.2515 27.6229 89.6253 28.5204C89.9944 29.4178 90.5101 30.2001 91.1631 30.8624C91.8208 31.5246 92.5826 32.0525 93.4579 32.4413C94.3333 32.83 95.2701 33.022 96.2779 33.022C97.2858 33.022 98.2226 32.83 99.098 32.4413C99.9733 32.0525 100.735 31.5294 101.393 30.8624C102.051 30.2001 102.562 29.4178 102.931 28.5204C103.3 27.6229 103.489 26.6631 103.489 25.6457C103.489 24.6283 103.304 23.6685 102.931 22.771C102.557 21.8736 102.046 21.0914 101.393 20.4291C100.74 19.7668 99.9733 19.2389 99.098 18.8502C98.2226 18.4614 97.2858 18.2695 96.2779 18.2695C95.2701 18.2695 94.3333 18.4614 93.4579 18.8502C92.5826 19.2389 91.8208 19.762 91.1631 20.4291C90.5101 21.0914 89.9944 21.8736 89.6253 22.771C89.2515 23.6685 89.067 24.6283 89.067 25.6457Z" fill="#181D27"/>
<path d="M96.2779 35.4887C94.9436 35.4887 93.6661 35.2248 92.4832 34.7112C91.3145 34.1977 90.2783 33.4923 89.4124 32.614C88.5465 31.7358 87.8509 30.6896 87.3447 29.4994C86.8336 28.3044 86.5781 27.0087 86.5781 25.6505C86.5781 24.2924 86.8384 23.0014 87.3447 21.8016C87.8509 20.6162 88.5465 19.5652 89.4124 18.687C90.2783 17.8088 91.3145 17.1033 92.4832 16.5898C93.6661 16.0715 94.9436 15.8123 96.2779 15.8123C97.6123 15.8123 98.8898 16.0763 100.073 16.5898C101.241 17.1033 102.278 17.8088 103.143 18.687C104.009 19.57 104.705 20.6162 105.211 21.8016C105.722 23.0014 105.978 24.2972 105.978 25.6505C105.978 27.0039 105.717 28.2996 105.211 29.4994C104.705 30.6848 104.009 31.7358 103.143 32.614C102.278 33.4923 101.241 34.1977 100.073 34.7112C98.8898 35.2296 97.6123 35.4887 96.2779 35.4887ZM96.2779 19.4693C95.4404 19.4693 94.655 19.6324 93.9358 19.9492C93.2024 20.2755 92.5542 20.7218 92.0053 21.2785C91.4612 21.8304 91.0306 22.4879 90.7183 23.2366C90.4107 23.9804 90.2546 24.7915 90.2546 25.6457C90.2546 26.5 90.4107 27.311 90.7183 28.0549C91.0306 28.8035 91.4612 29.4658 92.0053 30.0129C92.5542 30.5696 93.2024 31.0159 93.9358 31.3423C95.3742 31.9806 97.1817 31.9806 98.6248 31.3423C99.3582 31.0159 100.006 30.5696 100.555 30.0129C101.104 29.4562 101.53 28.8035 101.842 28.0549C102.15 27.311 102.306 26.5 102.306 25.6457C102.306 24.7915 102.15 23.9804 101.842 23.2366C101.53 22.4879 101.099 21.8304 100.555 21.2785C100.006 20.7218 99.3582 20.2755 98.6248 19.9492C97.9056 19.6276 97.1154 19.4693 96.2827 19.4693H96.2779Z" fill="#181D27"/>
<path d="M118.393 18.6678C117.39 18.6678 116.449 18.855 115.573 19.2341C114.698 19.6132 113.936 20.1315 113.279 20.7938C112.626 21.4561 112.11 22.2335 111.741 23.1214C111.367 24.0092 111.182 24.9594 111.182 25.9817V33.9578H109.872V25.9817C109.872 24.7867 110.094 23.6637 110.544 22.6079C110.993 21.5569 111.599 20.6402 112.361 19.8676C113.127 19.0901 114.026 18.4758 115.062 18.0247C116.099 17.5688 117.211 17.3433 118.389 17.3433V18.6726L118.393 18.6678Z" fill="#181D27"/>
<path d="M112.365 35.1576H108.689V25.9817C108.689 24.6283 108.949 23.3325 109.455 22.1328C109.962 20.9474 110.657 19.8964 111.523 19.0181C112.389 18.1399 113.421 17.4344 114.594 16.9209C115.777 16.4026 117.054 16.1435 118.389 16.1435H119.572V19.8724H118.389C117.547 19.8724 116.756 20.0308 116.032 20.3427C115.304 20.6594 114.655 21.0962 114.111 21.6481C113.567 22.2 113.132 22.8526 112.824 23.5965C112.517 24.3308 112.361 25.1322 112.361 25.9865V35.1624L112.365 35.1576Z" fill="#181D27"/>
<path d="M123.144 33.9578V17.3433H124.455V22.2288C124.762 21.4753 125.155 20.7794 125.633 20.1363C126.111 19.4933 126.664 18.9414 127.289 18.4758C127.913 18.0103 128.595 17.6504 129.338 17.396C130.081 17.1417 130.857 17.0121 131.666 17.0121C132.844 17.0121 133.956 17.2377 134.992 17.6936C136.028 18.1495 136.932 18.7638 137.694 19.5365C138.46 20.3139 139.066 21.2257 139.511 22.2767C139.96 23.3277 140.183 24.4555 140.183 25.6505V33.9578H138.872V25.6505C138.872 24.6331 138.687 23.6781 138.314 22.7902C137.94 21.9024 137.429 21.1298 136.776 20.4627C136.123 19.7956 135.356 19.2773 134.481 18.903C133.606 18.5286 132.669 18.3367 131.661 18.3367C130.653 18.3367 129.759 18.519 128.907 18.8838C128.055 19.2485 127.303 19.7476 126.645 20.3811C125.992 21.0146 125.467 21.7536 125.074 22.6079C124.682 23.4621 124.474 24.374 124.45 25.3482V33.953H123.139L123.144 33.9578Z" fill="#181D27"/>
<path d="M141.361 35.1576H137.684V25.6505C137.684 24.7963 137.528 23.9948 137.221 23.2606C136.908 22.5215 136.478 21.864 135.934 21.3121C135.389 20.7602 134.741 20.3187 134.013 20.0068C133.289 19.6948 132.498 19.5365 131.656 19.5365C130.814 19.5365 130.066 19.69 129.366 19.9924C128.652 20.2995 128.008 20.7218 127.459 21.2497C126.915 21.7728 126.47 22.4015 126.144 23.1166C125.822 23.8173 125.652 24.5755 125.633 25.377V35.1576H121.956V16.1435H125.633V18.3223C125.931 18.0295 126.248 17.756 126.584 17.5064C127.303 16.9689 128.103 16.5466 128.954 16.2539C129.816 15.9563 130.729 15.8075 131.661 15.8075C132.995 15.8075 134.273 16.0715 135.456 16.585C136.624 17.0985 137.661 17.804 138.526 18.6822C139.392 19.5604 140.088 20.6114 140.594 21.7968C141.105 22.9966 141.361 24.2924 141.361 25.6457V35.1528V35.1576Z" fill="#181D27"/>
<path d="M145.586 25.6457C145.586 24.4507 145.808 23.3277 146.258 22.2719C146.707 21.2209 147.313 20.3043 148.075 19.5316C148.841 18.7542 149.74 18.1399 150.777 17.6888C151.813 17.2329 152.925 17.0073 154.103 17.0073C155.281 17.0073 156.388 17.2329 157.429 17.6888C158.465 18.1447 159.369 18.759 160.131 19.5316C160.898 20.3091 161.503 21.2209 161.948 22.2719C162.397 23.3229 162.62 24.4507 162.62 25.6457C162.62 26.8407 162.397 27.9685 161.948 29.0195C161.498 30.0705 160.893 30.9871 160.131 31.7598C159.369 32.5324 158.465 33.1515 157.429 33.6027C156.393 34.0586 155.281 34.2841 154.103 34.2841C152.925 34.2841 151.813 34.0586 150.777 33.6027C149.74 33.1467 148.837 32.5324 148.075 31.7598C147.308 30.9823 146.703 30.0705 146.258 29.0195C145.808 27.9685 145.586 26.8407 145.586 25.6457ZM146.897 25.6457C146.897 26.6631 147.081 27.6229 147.455 28.5204C147.824 29.4178 148.34 30.2001 148.993 30.8624C149.646 31.5246 150.412 32.0525 151.288 32.4413C152.163 32.83 153.1 33.022 154.108 33.022C155.115 33.022 156.052 32.83 156.928 32.4413C157.803 32.0525 158.565 31.5294 159.223 30.8624C159.88 30.1953 160.391 29.4178 160.76 28.5204C161.134 27.6229 161.319 26.6631 161.319 25.6457C161.319 24.6283 161.134 23.6685 160.76 22.771C160.387 21.8736 159.875 21.0914 159.223 20.4291C158.57 19.7668 157.803 19.2389 156.928 18.8502C156.052 18.4614 155.115 18.2695 154.108 18.2695C153.1 18.2695 152.163 18.4614 151.288 18.8502C150.412 19.2389 149.65 19.762 148.993 20.4291C148.335 21.0962 147.824 21.8736 147.455 22.771C147.081 23.6685 146.897 24.6283 146.897 25.6457Z" fill="#181D27"/>
<path d="M154.103 35.4887C152.769 35.4887 151.491 35.2248 150.308 34.7112C149.139 34.1977 148.103 33.4923 147.237 32.614C146.371 31.7358 145.676 30.6848 145.17 29.4994C144.659 28.2996 144.403 27.0087 144.403 25.6505C144.403 24.2924 144.663 23.0014 145.17 21.8016C145.676 20.6162 146.371 19.5652 147.237 18.687C148.103 17.8088 149.139 17.1033 150.308 16.5898C151.491 16.0715 152.769 15.8123 154.103 15.8123C155.437 15.8123 156.715 16.0763 157.898 16.5898C159.066 17.1033 160.103 17.8088 160.969 18.687C161.834 19.57 162.53 20.6162 163.036 21.8016C163.547 23.0014 163.803 24.2972 163.803 25.6505C163.803 27.0039 163.542 28.2996 163.036 29.4994C162.53 30.6848 161.834 31.7358 160.969 32.614C160.103 33.4923 159.066 34.1977 157.898 34.7112C156.715 35.2296 155.437 35.4887 154.103 35.4887ZM154.103 19.4693C153.265 19.4693 152.48 19.6324 151.761 19.9492C151.027 20.2755 150.379 20.7218 149.83 21.2785C149.286 21.8304 148.856 22.4879 148.543 23.2366C148.236 23.9804 148.08 24.7915 148.08 25.6457C148.08 26.5 148.236 27.311 148.543 28.0549C148.856 28.8035 149.286 29.461 149.83 30.0129C150.379 30.5696 151.027 31.0159 151.761 31.3423C152.48 31.6638 153.27 31.8222 154.103 31.8222C154.936 31.8222 155.726 31.659 156.445 31.3423C157.178 31.0159 157.827 30.5696 158.376 30.0129C158.92 29.461 159.35 28.8035 159.663 28.0549C159.97 27.311 160.126 26.5 160.126 25.6457C160.126 24.7915 159.97 23.9804 159.663 23.2366C159.35 22.4879 158.92 21.8304 158.376 21.2785C157.827 20.7218 157.178 20.2755 156.445 19.9492C155.726 19.6276 154.936 19.4693 154.103 19.4693Z" fill="#181D27"/>
<path d="M176.218 34.2889C175.04 34.2889 173.928 34.0634 172.892 33.6075C171.856 33.1515 170.952 32.5373 170.19 31.7646C169.424 30.9871 168.818 30.0753 168.373 29.0243C167.924 27.9733 167.702 26.8455 167.702 25.6505V15.6828H169.012V23.059H176.218V24.3212H169.012V25.6505C169.012 26.6679 169.197 27.623 169.571 28.5108C169.94 29.3986 170.455 30.1713 171.108 30.8384C171.761 31.5054 172.528 32.0237 173.403 32.3981C174.278 32.7772 175.215 32.9644 176.223 32.9644V34.2937L176.218 34.2889Z" fill="#181D27"/>
<path d="M177.401 35.4887H176.218C174.884 35.4887 173.607 35.2248 172.424 34.7112C171.255 34.1977 170.219 33.4923 169.353 32.614C168.487 31.7358 167.791 30.6848 167.285 29.4994C166.774 28.2996 166.519 27.0087 166.519 25.6505V14.483H170.195V21.8592H177.401V25.5209H170.195V25.6505C170.195 26.5048 170.351 27.3062 170.659 28.0405C170.966 28.7795 171.402 29.437 171.946 29.9889C172.49 30.5408 173.138 30.9823 173.867 31.2943C174.591 31.6062 175.381 31.7646 176.223 31.7646H177.406V35.4935L177.401 35.4887Z" fill="#181D27"/>
<path d="M189.817 34.2889C188.639 34.2889 187.527 34.0634 186.491 33.6075C185.455 33.1515 184.551 32.5373 183.789 31.7646C183.023 30.9871 182.417 30.0753 181.972 29.0243C181.523 27.9733 181.3 26.8455 181.3 25.6505V15.6828H182.611V23.059H189.817V24.3212H182.611V25.6505C182.611 26.6679 182.795 27.623 183.169 28.5108C183.538 29.3986 184.054 30.1713 184.707 30.8384C185.36 31.5054 186.126 32.0237 187.002 32.3981C187.877 32.7772 188.814 32.9644 189.822 32.9644V34.2937L189.817 34.2889Z" fill="#181D27"/>
<path d="M191 35.4887H189.817C188.483 35.4887 187.205 35.2248 186.022 34.7112C184.854 34.1977 183.817 33.4923 182.952 32.614C182.086 31.7358 181.39 30.6848 180.884 29.4994C180.373 28.2996 180.117 27.0087 180.117 25.6505V14.483H183.794V21.8592H191V25.5209H183.794V25.6505C183.794 26.5048 183.95 27.3062 184.257 28.0405C184.565 28.7795 185 29.437 185.544 29.9889C186.089 30.5408 186.737 30.9823 187.465 31.2943C188.189 31.6062 188.98 31.7646 189.822 31.7646H191.005V35.4935L191 35.4887Z" fill="#181D27"/>
</g>
<defs>
<clipPath id="clip0_2027_2440">
<rect width="191" height="48" fill="white"/>
</clipPath>
</defs>
</svg>
