<svg width="64" height="64" viewBox="0 0 64 64" fill="none" xmlns="http://www.w3.org/2000/svg">
<path d="M24 30.6666L29.3333 36L41.3333 24M53.3333 32C53.3333 45.0892 39.0561 54.609 33.8613 57.6397C33.2709 57.9841 32.9757 58.1563 32.5591 58.2456C32.2358 58.315 31.7641 58.315 31.4408 58.2456C31.0242 58.1563 30.729 57.9841 30.1387 57.6397C24.9439 54.609 10.6666 45.0892 10.6666 32V19.2469C10.6666 17.1149 10.6666 16.0489 11.0153 15.1325C11.3234 14.323 11.8239 13.6007 12.4737 13.0281C13.2093 12.3798 14.2074 12.0055 16.2037 11.2569L30.5018 5.89511C31.0562 5.68722 31.3334 5.58327 31.6186 5.54206C31.8715 5.50551 32.1284 5.50551 32.3813 5.54206C32.6665 5.58327 32.9437 5.68722 33.4981 5.89511L47.7962 11.2569C49.7925 12.0055 50.7906 12.3798 51.5262 13.0281C52.176 13.6007 52.6766 14.323 52.9846 15.1325C53.3333 16.0489 53.3333 17.1149 53.3333 19.2469V32Z" stroke="#A4A7AE" stroke-width="2" stroke-linecap="round" stroke-linejoin="round"/>
</svg>
